HIERARCHY
ROOT joint_Root
{
	OFFSET 0.0 0.0 0.0
	CHANNELS 6 Xposition Yposition Zposition Zrotation Xrotation Yrotation 
	JOINT Hips
	{
		OFFSET 4.5925 91.4895 -427.239
		CHANNELS 6 Xposition Yposition Zposition Zrotation Xrotation Yrotation 
		JOINT Spine
		{
			OFFSET 15.7357 0.0 0.0
			CHANNELS 6 Xposition Yposition Zposition Zrotation Xrotation Yrotation 
			JOINT Chest
			{
				OFFSET 8.98455 -0.406207 0.0
				CHANNELS 6 Xposition Yposition Zposition Zrotation Xrotation Yrotation 
				JOINT Neck
				{
					OFFSET 16.3773 0.0 0.0
					CHANNELS 6 Xposition Yposition Zposition Zrotation Xrotation Yrotation 
					JOINT Head
					{
						OFFSET 6.45672 0.0 0.0
						CHANNELS 6 Xposition Yposition Zposition Zrotation Xrotation Yrotation 
						End Site
						{
							OFFSET 0.0 0.0 0.0
						}
					}
				}
				JOINT Shoulder_L
				{
					OFFSET 12.9942 -0.242716 4.98039
					CHANNELS 6 Xposition Yposition Zposition Zrotation Xrotation Yrotation 
					JOINT UpperArm_L
					{
						OFFSET 5.34809 0.0 0.0
						CHANNELS 6 Xposition Yposition Zposition Zrotation Xrotation Yrotation 
						JOINT LowerArm_L
						{
							OFFSET 24.3286 1.87007e-05 0.0
							CHANNELS 6 Xposition Yposition Zposition Zrotation Xrotation Yrotation 
							JOINT Hand_L
							{
								OFFSET 22.2916 0.0 0.0
								CHANNELS 6 Xposition Yposition Zposition Zrotation Xrotation Yrotation 
								End Site
								{
									OFFSET 0.0 0.0 0.0
								}
							}
						}
					}
				}
				JOINT Shoulder_R
				{
					OFFSET 12.9945 -0.242716 -4.98039
					CHANNELS 6 Xposition Yposition Zposition Zrotation Xrotation Yrotation 
					JOINT UpperArm_R
					{
						OFFSET -5.34813 0.0 0.0
						CHANNELS 6 Xposition Yposition Zposition Zrotation Xrotation Yrotation 
						JOINT LowerArm_R
						{
							OFFSET -24.3289 0.000322201 0.0
							CHANNELS 6 Xposition Yposition Zposition Zrotation Xrotation Yrotation 
							JOINT Hand_R
							{
								OFFSET -22.2915 -0.000108084 0.0
								CHANNELS 6 Xposition Yposition Zposition Zrotation Xrotation Yrotation 
								End Site
								{
									OFFSET 0.0 0.0 0.0
								}
							}
						}
					}
				}
			}
		}
		JOINT UpperLeg_L
		{
			OFFSET -2.19248 -6.46944 0.0
			CHANNELS 6 Xposition Yposition Zposition Zrotation Xrotation Yrotation 
			JOINT LowerLeg_L
			{
				OFFSET 39.0811 0.0 -1.23785e-05
				CHANNELS 6 Xposition Yposition Zposition Zrotation Xrotation Yrotation 
				JOINT Foot_L
				{
					OFFSET 40.9854 0.0 -1.26872e-05
					CHANNELS 6 Xposition Yposition Zposition Zrotation Xrotation Yrotation 
					JOINT Toes_L
					{
						OFFSET 11.7543 0.0 0.0
						CHANNELS 6 Xposition Yposition Zposition Zrotation Xrotation Yrotation 
						End Site
						{
							OFFSET 0.0 0.0 0.0
						}
					}
				}
			}
		}
		JOINT UpperLeg_R
		{
			OFFSET -2.19251 6.46944 0.0
			CHANNELS 6 Xposition Yposition Zposition Zrotation Xrotation Yrotation 
			JOINT LowerLeg_R
			{
				OFFSET -39.0811 -0.00228153 -0.0401928
				CHANNELS 6 Xposition Yposition Zposition Zrotation Xrotation Yrotation 
				JOINT Foot_R
				{
					OFFSET -40.9854 0.0 0.0
					CHANNELS 6 Xposition Yposition Zposition Zrotation Xrotation Yrotation 
					JOINT Toes_R
					{
						OFFSET -11.7543 0.0 0.0
						CHANNELS 6 Xposition Yposition Zposition Zrotation Xrotation Yrotation 
						End Site
						{
							OFFSET 0.0 0.0 0.0
						}
					}
				}
			}
		}
	}
}
MOTION
Frames:	4
Frame Time:	0.0333333
0.000000 0.000000 0.000000 0.000000 0.000000 -0.000000 8.624570 89.866800 -1.467290 94.443800 -6.289510 10.058400 15.735700 0.000005 -0.000001 86.732700 81.817000 -89.157000 8.984550 -0.406207 -0.000000 8.558690 -0.945116 -4.773370 16.377300 -0.000001 -0.000001 0.293888 -1.847720 -1.363860 6.456720 -0.000001 -0.000000 -8.883990 -0.181630 -6.409120 12.994200 -0.242716 4.980390 -91.858600 7.203320 -75.491000 5.348090 -0.000007 -0.000001 -60.397200 36.775500 -15.994800 24.328600 0.000019 0.000005 7.534570 22.949600 -18.737500 22.291600 -0.000001 0.000005 8.580300 5.256650 1.256190 12.994500 -0.242716 -4.980390 88.825800 9.786650 -83.124100 -5.348130 -0.000001 -0.000004 -64.342000 29.437400 -11.450300 -24.328900 0.000322 -0.000009 1.592670 5.326650 -16.683600 -22.291500 -0.000108 -0.000004 12.925700 5.375810 -2.167370 -2.192480 -6.469440 -0.000000 172.987000 -16.118400 -2.250130 39.081100 -0.000007 -0.000012 0.055320 -0.090919 31.318100 40.985400 -0.000006 -0.000013 6.438420 0.540291 -70.916600 11.754300 -0.000000 0.000003 -0.000123 -0.001229 -16.624500 -2.192510 6.469440 -0.000001 165.983000 10.548600 174.212000 -39.081100 -0.002282 -0.040193 0.027451 -0.032623 36.527400 -40.985400 0.000008 0.000006 0.479236 9.014630 -70.902100 -11.754300 -0.000006 -0.000006 -0.004497 -0.056516 -18.872300
0.000000 0.000000 0.000000 0.000000 0.000000 -0.000000 8.707330 89.863900 -1.399690 94.437500 -6.226610 9.827610 15.735700 0.000005 -0.000001 86.173800 81.792400 -88.636100 8.984550 -0.406207 -0.000000 8.594560 -1.107960 -4.836970 16.377300 -0.000001 -0.000001 0.054511 -1.902250 -1.341460 6.456720 -0.000001 -0.000000 -8.988730 -0.152119 -6.422290 12.994200 -0.242716 4.980390 -91.913200 7.200740 -75.077500 5.348090 -0.000007 -0.000001 -61.122900 31.126600 -13.984400 24.328600 0.000019 0.000005 7.792000 23.406800 -19.006900 22.291600 -0.000001 0.000005 7.943860 5.265510 1.019380 12.994500 -0.242716 -4.980390 88.722100 9.809260 -82.540100 -5.348130 -0.000001 -0.000004 -63.977800 24.416500 -10.409500 -24.328900 0.000322 -0.000009 1.331980 4.441700 -16.724300 -22.291500 -0.000108 -0.000004 12.757600 5.372110 -2.051880 -2.192480 -6.469440 -0.000000 172.898000 -16.216700 -2.419450 39.081100 -0.000007 -0.000012 0.058474 -0.096265 31.275300 40.985400 -0.000006 -0.000013 6.548210 0.701568 -70.958200 11.754300 -0.000000 0.000003 -0.000125 -0.001244 -16.625000 -2.192510 6.469440 -0.000001 165.978000 10.493000 174.021000 -39.081100 -0.002282 -0.040193 0.027238 -0.032334 36.528100 -40.985400 0.000008 0.000006 0.321932 8.897260 -70.838500 -11.754300 -0.000006 -0.000006 -0.004503 -0.056570 -18.874500
0.000000 0.000000 0.000000 0.000000 0.000000 -0.000000 8.792280 89.862600 -1.329600 94.459000 -6.188710 9.618690 15.735700 0.000005 -0.000001 85.698800 81.782900 -88.217400 8.984550 -0.406207 -0.000000 8.600990 -1.245010 -4.939060 16.377300 -0.000001 -0.000001 -0.025593 -1.944220 -1.336220 6.456720 -0.000001 -0.000000 -9.113270 -0.167331 -6.390460 12.994200 -0.242716 4.980390 -91.943400 7.104260 -74.657900 5.348090 -0.000007 -0.000001 -61.166200 25.176600 -12.280900 24.328600 0.000019 0.000005 8.135180 23.145500 -19.984700 22.291600 -0.000001 0.000005 7.754660 5.268920 0.927606 12.994500 -0.242716 -4.980390 88.629000 9.798560 -81.994800 -5.348130 -0.000001 -0.000004 -63.291700 19.337700 -9.435910 -24.328900 0.000322 -0.000009 1.106120 3.551020 -17.330000 -22.291500 -0.000108 -0.000004 12.701000 5.373520 -2.095690 -2.192480 -6.469440 -0.000000 172.770000 -16.224700 -2.557280 39.081100 -0.000007 -0.000012 0.058960 -0.097332 31.205500 40.985400 -0.000006 -0.000013 6.618330 0.748467 -70.981000 11.754300 -0.000000 0.000003 -0.000128 -0.001267 -16.625900 -2.192510 6.469440 -0.000001 165.945000 10.434200 173.836000 -39.081100 -0.002282 -0.040193 0.027536 -0.032719 36.543400 -40.985400 0.000008 0.000006 0.240308 8.787770 -70.794000 -11.754300 -0.000006 -0.000006 -0.004241 -0.053921 -18.766600
0.000000 0.000000 0.000000 0.000000 0.000000 -0.000000 8.861960 89.860000 -1.255210 94.511000 -6.254140 9.423780 15.735700 0.000005 -0.000001 85.470900 81.768200 -88.059700 8.984550 -0.406207 -0.000000 8.623270 -1.313170 -5.074090 16.377300 -0.000001 -0.000001 -0.138128 -2.019850 -1.315020 6.456720 -0.000001 -0.000000 -9.109200 -0.245778 -6.431320 12.994200 -0.242716 4.980390 -91.939600 6.908050 -74.275000 5.348090 -0.000007 -0.000001 -60.396900 19.817900 -11.096100 24.328600 0.000019 0.000005 8.612500 22.919200 -21.251900 22.291600 -0.000001 0.000005 8.506390 5.276300 0.728024 12.994500 -0.242716 -4.980390 88.576700 9.715890 -81.624400 -5.348130 -0.000001 -0.000004 -62.226400 14.345700 -8.632560 -24.328900 0.000322 -0.000009 0.976488 2.974500 -18.203700 -22.291500 -0.000108 -0.000004 12.616300 5.380960 -2.328520 -2.192480 -6.469440 -0.000000 172.631000 -16.283600 -2.682450 39.081100 -0.000007 -0.000012 0.058291 -0.096523 31.127600 40.985400 -0.000006 -0.000013 6.662730 0.755525 -71.004600 11.754300 -0.000000 0.000003 -0.000127 -0.001259 -16.625600 -2.192510 6.469440 -0.000001 165.895000 10.394800 173.637000 -39.081100 -0.002282 -0.040193 0.028220 -0.033615 36.564600 -40.985400 0.000008 0.000006 0.221989 8.737220 -70.800300 -11.754300 -0.000006 -0.000006 -0.004235 -0.053864 -18.764300
